<svg width="126" height="50" viewBox="0 0 126 50" fill="none" xmlns="http://www.w3.org/2000/svg">
<path d="M7.02159 34.1659V48.9892H3.02318V37.2866H0V34.0684H7.02159V34.1659Z" fill="#FF5A60"/>
<path d="M21.1629 41.5776C21.1629 46.4537 19.0174 49.0868 15.1165 49.0868C11.1181 49.0868 8.97266 46.3561 8.97266 41.5776C8.97266 36.7015 11.1181 34.0684 15.1165 34.0684C18.9199 34.0684 21.1629 36.799 21.1629 41.5776ZM12.8735 41.5776C12.8735 44.9908 13.5562 46.3561 15.1165 46.3561C16.6769 46.3561 17.3596 44.8933 17.3596 41.5776C17.3596 38.1643 16.6769 36.799 15.1165 36.799C13.4587 36.799 12.8735 38.1643 12.8735 41.5776Z" fill="#FF5A60"/>
<path d="M33.9383 41.5776C33.9383 46.4537 31.7928 49.0868 27.8919 49.0868C23.8935 49.0868 21.748 46.3561 21.748 41.5776C21.748 36.7015 23.8935 34.0684 27.8919 34.0684C31.7928 34.0684 33.9383 36.799 33.9383 41.5776ZM25.6489 41.5776C25.6489 44.9908 26.3316 46.3561 27.8919 46.3561C29.4523 46.3561 30.1349 44.8933 30.1349 41.5776C30.1349 38.1643 29.4523 36.799 27.8919 36.799C26.3316 36.799 25.6489 38.1643 25.6489 41.5776Z" fill="#FF5A60"/>
<path d="M41.2509 34.166V45.6736H47.1022V48.9894H37.6426V34.166H41.2509Z" fill="#3E3E3E"/>
<path d="M59.8786 41.5781V48.9898H55.9777V47.722C55.1975 48.6972 53.9297 49.1848 52.3694 49.1848C49.8338 49.1848 48.2734 47.722 48.2734 45.5765C48.2734 43.431 49.9313 42.1632 52.857 42.0657H55.9777V41.9682C55.9777 40.8954 55.1975 40.2128 53.7347 40.2128C52.7595 40.2128 51.3941 40.5053 50.1264 41.0905L49.0536 38.5549C50.9065 37.7747 52.6619 37.2871 54.6124 37.2871C57.9281 37.4822 59.8786 38.945 59.8786 41.5781ZM55.9777 45.1864V44.2112H53.6372C52.5644 44.2112 51.9793 44.6013 51.9793 45.3814C51.9793 46.1616 52.5644 46.6492 53.6372 46.6492C54.8074 46.6492 55.7826 46.0641 55.9777 45.1864Z" fill="#3E3E3E"/>
<path d="M73.8238 33.3867V49.0878H69.8254V47.6249C69.0452 48.6977 67.7774 49.2828 66.3146 49.2828C62.9013 49.2828 60.7559 46.9423 60.7559 43.334C60.7559 39.8232 62.9989 37.5802 66.3146 37.5802C67.875 37.5802 69.1428 38.1653 69.9229 39.238V33.4842H73.8238V33.3867ZM69.8254 43.334C69.8254 41.5786 68.7527 40.5058 67.2898 40.5058C65.7295 40.5058 64.6567 41.6761 64.6567 43.334C64.6567 44.9918 65.7295 46.1621 67.2898 46.1621C68.8502 46.2596 69.8254 45.0894 69.8254 43.334Z" fill="#3E3E3E"/>
<path d="M83.8682 37.4814V40.8947C81.6252 40.6997 80.1623 41.5774 79.9673 43.2352V49.0866H76.0664V37.579H80.0648V39.5294C80.845 38.1641 82.2103 37.4814 83.8682 37.4814Z" fill="#3E3E3E"/>
<path d="M88.842 34.3624C88.842 35.5327 87.9643 36.4104 86.7941 36.4104C85.5263 36.4104 84.7461 35.6302 84.7461 34.3624C84.7461 33.1922 85.6238 32.3145 86.7941 32.3145C87.9643 32.3145 88.842 33.1922 88.842 34.3624ZM88.647 37.5806V48.9907H84.7461V37.5806H88.647Z" fill="#3E3E3E"/>
<path d="M94.889 33.3867V49.0878H90.8906V33.3867H94.889Z" fill="#3E3E3E"/>
<path d="M101.129 33.3867V49.0878H97.1309V33.3867H101.129Z" fill="#3E3E3E"/>
<path d="M115.564 43.3328C115.564 46.8436 112.931 49.1841 109.03 49.1841C105.032 49.1841 102.496 46.8436 102.496 43.3328C102.496 39.822 105.129 37.4814 109.03 37.4814C112.931 37.4814 115.564 39.822 115.564 43.3328ZM106.397 43.3328C106.397 44.9906 107.47 46.1609 108.933 46.1609C110.493 46.1609 111.566 44.9906 111.566 43.3328C111.566 41.5774 110.493 40.5046 108.933 40.5046C107.47 40.5046 106.397 41.6749 106.397 43.3328Z" fill="#3E3E3E"/>
<path d="M120.928 40.0179C120.245 40.0179 119.758 40.2129 119.758 40.7005C119.758 42.1633 126.097 41.4807 125.999 45.4791C125.999 47.8196 123.854 49.1849 120.928 49.1849C118.88 49.1849 116.93 48.5998 115.467 47.5271L116.735 45.089C118.1 45.9667 119.66 46.5518 121.026 46.5518C121.806 46.5518 122.293 46.3568 122.293 45.8692C122.293 44.3088 116.052 45.089 116.052 41.0906C116.052 38.6526 118.197 37.3848 121.026 37.3848C122.781 37.3848 124.536 37.8724 125.999 38.7501L124.634 41.1881C123.269 40.5055 121.903 40.0179 120.928 40.0179Z" fill="#3E3E3E"/>
<path d="M84.3572 21.0989C84.3572 16.2228 84.3572 11.3467 84.3572 6.4706C84.3572 5.00777 84.3572 3.44741 84.3572 1.98458C84.3572 1.78954 84.3572 1.69202 84.2597 1.49697C84.1621 1.30193 84.0646 1.20441 83.8696 1.10689C83.7721 1.00936 83.577 1.00936 83.4795 1.00936C81.8216 1.00936 80.1637 1.00936 78.5059 1.00936C77.5306 1.00936 75.8728 0.716797 75.0926 1.39945C73.3372 3.15485 71.7768 5.00777 70.119 6.86069C70.119 6.08051 70.119 5.20281 70.119 4.42264C70.119 3.54494 70.119 2.76476 70.119 1.88706C70.119 1.69202 70.119 1.5945 70.0214 1.39945C69.9239 1.20441 69.8264 1.10689 69.6314 1.00936C69.5338 0.911841 69.3388 0.911841 69.2413 0.911841C67.5834 0.911841 65.9255 0.911841 64.2676 0.911841C63.2924 0.911841 61.6345 0.619275 60.8544 1.30193C59.1965 3.05733 57.5386 4.81272 55.9783 6.66564C55.9783 5.88547 55.9783 5.10529 55.9783 4.32511C55.9783 3.44741 55.9783 2.56972 55.9783 1.5945C55.9783 1.20441 55.6857 0.911841 55.3931 0.911841C55.2956 0.814319 55.1981 0.814319 55.1006 0.814319C53.5402 0.814319 51.9799 0.814319 50.322 0.814319C49.3468 0.814319 47.4938 0.424231 46.7137 1.20441C44.4707 3.44741 42.5202 5.88547 40.3747 8.226C40.3747 8.226 40.3747 8.226 40.3747 8.32352C40.2772 8.42104 40.1797 8.61608 40.1797 8.81113C40.1797 14.3699 40.1797 19.9286 40.1797 25.3899C40.1797 26.1701 40.1797 26.9502 40.1797 27.7304C40.1797 28.4131 41.0574 28.8032 41.545 28.3155C43.8855 26.0725 46.1285 23.8295 48.4691 21.5865C48.4691 22.9518 48.4691 24.2196 48.4691 25.5849C48.4691 26.3651 48.4691 27.2428 48.4691 28.023C48.4691 28.4131 48.8592 28.8032 49.2492 28.8032C51.1997 28.8032 53.1501 28.8032 55.003 28.8032C55.1981 28.8032 55.4907 28.8032 55.6857 28.6081C58.0262 26.2676 60.2692 24.0246 62.6098 21.684C62.6098 22.9518 62.6098 24.3171 62.6098 25.5849C62.6098 26.3651 62.6098 27.2428 62.6098 28.023C62.6098 28.4131 62.9999 28.8032 63.3899 28.8032C65.3404 28.8032 67.1933 28.8032 69.1437 28.8032C69.3388 28.8032 69.6314 28.8032 69.8264 28.6081C72.1669 26.2676 74.5075 23.927 76.848 21.5865C76.848 22.9518 76.848 24.3171 76.848 25.5849C76.848 26.3651 76.848 27.2428 76.848 28.023C76.848 28.7056 77.7257 29.0957 78.2133 28.6081C79.6761 27.0478 81.2365 25.4874 82.6993 23.927C83.1869 23.4394 84.0646 22.7568 84.2597 22.0741C84.3572 21.7816 84.3572 21.3915 84.3572 21.0989ZM82.6993 21.7816C81.334 23.2444 79.9687 24.6097 78.5059 26.0725C78.5059 21.1964 78.5059 16.3203 78.5059 11.3467C78.5059 10.664 78.5059 9.88387 78.5059 9.20122C79.9687 7.54334 81.334 5.78794 82.6993 4.03255C82.6993 9.20122 82.6993 14.3699 82.6993 19.441C82.6993 20.2212 82.6993 21.0014 82.6993 21.7816ZM76.2629 2.47219C78.1158 2.47219 79.9687 2.47219 81.9191 2.47219C80.3588 4.32511 78.896 6.27555 77.3356 8.12847C75.2876 8.12847 73.1422 8.12847 71.0942 8.12847C72.7521 6.27555 74.5075 4.32511 76.2629 2.47219ZM64.2676 11.3467C64.2676 10.664 64.2676 9.88387 64.2676 9.20122C65.7305 7.54334 67.0958 5.78794 68.4611 4.03255C68.4611 5.69042 68.4611 7.25078 68.4611 8.90865C68.4611 12.712 68.4611 26.6577 68.4611 27.2428C67.0958 27.2428 65.7305 27.2428 64.2676 27.2428C64.2676 21.9766 64.2676 16.6129 64.2676 11.3467ZM62.0246 2.47219C63.8776 2.47219 65.7305 2.47219 67.6809 2.47219C66.1206 4.32511 64.6577 6.27555 63.0974 8.12847C61.0494 8.12847 58.9039 8.12847 56.856 8.12847C58.6114 6.27555 60.2692 4.32511 62.0246 2.47219ZM50.1269 11.2492C50.1269 10.5665 50.1269 9.78635 50.1269 9.10369C51.6873 7.44582 53.0526 5.69042 54.4179 3.8375C54.4179 5.39786 54.4179 26.6577 54.4179 27.2428C53.0526 27.2428 51.5898 27.2428 50.2245 27.2428C50.1269 21.8791 50.1269 16.6129 50.1269 11.2492ZM47.8839 2.47219C49.7368 2.47219 51.5898 2.47219 53.4427 2.47219C51.9799 4.32511 50.4195 6.17803 48.9567 8.03095C46.9087 8.03095 44.8607 8.03095 42.8128 8.03095C44.4707 6.17803 46.2261 4.32511 47.8839 2.47219ZM41.8376 25.8775C41.8376 21.0014 41.8376 16.0278 41.8376 11.1517C41.8376 10.664 41.8376 10.0789 41.8376 9.59131C43.2029 9.59131 44.4707 9.59131 45.836 9.59131C46.7137 9.59131 47.5914 9.59131 48.5666 9.59131C48.5666 12.8095 48.5666 16.1253 48.5666 19.3435C46.3236 21.5865 44.0806 23.732 41.8376 25.8775ZM55.9783 26.0725C55.9783 25.0973 55.9783 24.1221 55.9783 23.1469C55.9783 19.246 55.9783 15.2476 55.9783 11.3467C55.9783 10.7616 55.9783 10.274 55.9783 9.68883C57.2461 9.68883 58.6114 9.68883 59.8791 9.68883C60.7568 9.68883 61.7321 9.68883 62.6098 9.68883C62.6098 12.9071 62.6098 16.1253 62.6098 19.3435C60.4643 21.684 58.2213 23.8295 55.9783 26.0725ZM70.119 26.0725C70.119 25.0973 70.119 24.1221 70.119 23.1469C70.119 19.246 70.119 15.2476 70.119 11.3467C70.119 10.7616 70.119 10.274 70.119 9.68883C71.4843 9.68883 72.8496 9.68883 74.1174 9.68883C74.9951 9.68883 75.9703 9.68883 76.848 9.68883C76.848 12.9071 76.848 16.1253 76.848 19.3435C74.605 21.5865 72.362 23.8295 70.119 26.0725Z" fill="#FF5A60"/>
</svg>
