<svg width="36" height="30" viewBox="0 0 36 30" fill="none" xmlns="http://www.w3.org/2000/svg">
<path fill-rule="evenodd" clip-rule="evenodd" d="M24.3909 27.0303V23.9048V11.2811V9.51904H27.6831H29.9157V19.8015C28.0741 22.2103 26.2325 24.6214 24.3909 27.0303ZM12.8893 27.0259V23.9048V11.2811V9.51904H16.0942H18.3268V19.8929C16.5132 22.2692 14.7013 24.6475 12.8893 27.0259ZM1.33362 26.8539V11.1177V9.41014H4.58388H6.7868V19.8864C4.96966 22.2082 3.15076 24.5321 1.33362 26.8539ZM6.27361 1.75441H10.7946C9.57274 3.75165 8.35259 5.74889 7.12894 7.74614H2.12088C3.50512 5.74889 4.88936 3.75165 6.27361 1.75441ZM8.12042 11.1874V8.86128C9.34058 7.09491 10.4438 5.17172 11.5557 3.27467V28.2739H8.12042V11.1874ZM17.7979 1.77837H22.3835C21.1459 3.80393 19.9083 5.82948 18.6707 7.85504H13.5893C14.991 5.82948 16.3945 3.80393 17.7979 1.77837ZM19.6604 11.2811V8.97018C20.8649 7.22559 21.9576 5.32854 23.0573 3.45327V8.68704V28.2739H19.6604V11.2811ZM29.3868 1.77837H33.9724C32.7348 3.80393 31.4972 5.82948 30.2578 7.85504H25.1782C26.5816 5.82948 27.9851 3.80393 29.3868 1.77837ZM34.6462 22.4042C33.5151 23.931 32.3822 25.4578 31.2493 26.9846V11.2811V8.97018C32.4538 7.22559 33.5482 5.32854 34.6462 3.45327V19.9626V22.4042ZM35.9798 21.6419V5.95145V1.13368C36.013 0.968149 35.992 0.796086 35.9327 0.639268C35.8786 0.458493 35.7756 0.327812 35.6499 0.247225C35.5487 0.166639 35.43 0.116544 35.313 0.116544H31.2441C30.4202 0.116544 29.0796 -0.238472 28.4634 0.576106C27.046 2.4492 25.7246 4.45297 24.3909 6.43061V3.81917V1.13368C24.4259 0.968149 24.4049 0.796086 24.3456 0.639268C24.288 0.458493 24.1867 0.327812 24.061 0.247225C23.958 0.166639 23.8428 0.116544 23.7241 0.116544H19.6534C18.8295 0.116544 17.4907 -0.238472 16.8727 0.576106C15.4885 2.40782 14.1933 4.36585 12.8893 6.29993V3.81917V0.946369C12.8893 0.512944 12.6694 0.258116 12.4093 0.175351C12.322 0.123079 12.2278 0.0904078 12.1353 0.0904078H8.27579C7.44489 0.0904078 5.9978 -0.295101 5.36765 0.526011C3.55225 2.89134 1.91141 5.51367 0.195511 7.99008L0.190262 8.00097C0.176297 8.01839 0.165829 8.04017 0.15361 8.06195C0.0610942 8.20352 0 8.3843 0 8.57814V26.3573V28.8969C0 29.6112 0.731404 30.0033 1.13812 29.4849C3.0216 27.0782 4.90333 24.6715 6.7868 22.2648V26.4989V29.1059C6.7868 29.5568 7.09228 29.938 7.45361 29.938H12.1667C12.3447 29.9706 12.5315 29.9075 12.6938 29.694C14.5721 27.2307 16.4486 24.7673 18.3268 22.3062V26.5119V29.1059C18.3268 29.5568 18.6323 29.938 18.9936 29.938H23.6718C23.8463 29.9684 24.0331 29.9053 24.1954 29.694C26.1016 27.2002 28.0095 24.7064 29.9157 22.2103V26.5119V29.1059C29.9157 29.8051 30.6558 30.232 31.0538 29.694C32.281 28.0409 33.5063 26.39 34.7317 24.7347C35.1385 24.1858 35.8751 23.5019 35.9798 22.7287C36.0252 22.3868 35.9798 21.9882 35.9798 21.6419Z" fill="white"/>
</svg>
