<svg width="24" height="24" viewBox="0 0 24 24" fill="none" xmlns="http://www.w3.org/2000/svg">
<path fill-rule="evenodd" clip-rule="evenodd" d="M2 6.25C2 5.55964 2.55964 5 3.25 5H20.75C21.4404 5 22 5.55964 22 6.25C22 6.94036 21.4404 7.5 20.75 7.5H3.25C2.55964 7.5 2 6.94036 2 6.25ZM2 12.25C2 11.5596 2.55964 11 3.25 11H20.75C21.4404 11 22 11.5596 22 12.25C22 12.9404 21.4404 13.5 20.75 13.5H3.25C2.55964 13.5 2 12.9404 2 12.25ZM3.25 17C2.55964 17 2 17.5596 2 18.25C2 18.9404 2.55964 19.5 3.25 19.5H20.75C21.4404 19.5 22 18.9404 22 18.25C22 17.5596 21.4404 17 20.75 17H3.25Z" fill="white"/>
</svg>
