<svg width="48" height="48" viewBox="0 0 48 48" fill="none" xmlns="http://www.w3.org/2000/svg">
<path d="M24 2C11.8692 2 2 11.8693 2 24.0001C2 36.1309 11.8692 46 24 46C36.1308 46 46 36.1309 46 24.0001C46 11.8693 36.1308 2 24 2ZM24 43.8C13.2869 43.8 4.2 34.7129 4.2 24C4.2 13.2871 13.2869 4.2 24 4.2C34.7131 4.2 43.8 13.2871 43.8 24C43.8 34.7129 34.7129 43.8 24 43.8Z" fill="#3E3E3E"/>
<path d="M32.276 19.3374C31.5767 18.6626 30.4378 18.6626 29.7285 19.3279L21.3469 27.2356L18.2799 24.2987C17.5806 23.6239 16.4417 23.6239 15.7324 24.2892C15.0232 24.9545 15.0232 26.0381 15.7225 26.7129L20.0581 30.8663C20.4078 31.199 20.8673 31.3701 21.3369 31.3701C21.7964 31.3701 22.256 31.2085 22.6056 30.8758L32.266 21.761C32.9753 21.0957 32.9753 20.0122 32.276 19.3374Z" fill="#47CBC3"/>
</svg>
