<svg width="48" height="49" viewBox="0 0 48 49" fill="none" xmlns="http://www.w3.org/2000/svg">
<path d="M31.4876 31.4342H15.9062V32.4342H31.4876V31.4342ZM15.4062 30.9342V22.4453H14.4062V30.9342H15.4062ZM15.9062 21.9453H31.4876V20.9453H15.9062V21.9453ZM31.9876 28.8954V30.9342H32.9876V28.8954H31.9876ZM31.9876 22.4453V28.8954H32.9876V22.4453H31.9876ZM31.4876 21.9453C31.7638 21.9453 31.9876 22.1692 31.9876 22.4453H32.9876C32.9876 21.6169 32.3161 20.9453 31.4876 20.9453V21.9453ZM15.4062 22.4453C15.4062 22.1692 15.6301 21.9453 15.9062 21.9453V20.9453C15.0778 20.9453 14.4062 21.6169 14.4062 22.4453H15.4062ZM15.9062 31.4342C15.6301 31.4342 15.4062 31.2103 15.4062 30.9342H14.4062C14.4062 31.7626 15.0778 32.4342 15.9062 32.4342V31.4342ZM31.4876 32.4342C32.3161 32.4342 32.9876 31.7626 32.9876 30.9342H31.9876C31.9876 31.2103 31.7638 31.4342 31.4876 31.4342V32.4342Z" fill="#3E3E3E"/>
<path d="M28.2017 19.0193C28.2017 19.2955 28.4256 19.5193 28.7017 19.5193C28.9779 19.5193 29.2017 19.2955 29.2017 19.0193H28.2017ZM18.8555 21.4069V19.0193H17.8555V21.4069H18.8555ZM18.8555 19.0193C18.8555 18.4377 19.0503 17.3543 19.7285 16.4301C20.3867 15.5333 21.5289 14.7441 23.5286 14.7441V13.7441C21.2174 13.7441 19.773 14.6794 18.9223 15.8385C18.0917 16.9703 17.8555 18.2746 17.8555 19.0193H18.8555ZM23.5286 14.7441C25.5437 14.7441 26.6828 15.4791 27.3334 16.337C28.0029 17.2199 28.2017 18.2965 28.2017 19.0193H29.2017C29.2017 18.1505 28.9694 16.8394 28.1302 15.7327C27.2719 14.601 25.8244 13.7441 23.5286 13.7441V14.7441Z" fill="#3E3E3E"/>
<circle cx="17.7462" cy="25.7804" r="0.683721" fill="#FF5A60"/>
<circle cx="21.6525" cy="25.7804" r="0.683721" fill="#FF5A60"/>
<circle cx="25.5587" cy="25.7804" r="0.683721" fill="#FF5A60"/>
<circle cx="29.465" cy="25.7804" r="0.683721" fill="#FF5A60"/>
<path d="M11 37.686V44.5C11 45.0523 11.4477 45.5 12 45.5H35.3953C35.9476 45.5 36.3954 45.0523 36.3954 44.5V37.686M11 37.686H36.3954M11 37.686V8.38372M36.3954 37.686V8.38372M36.3954 8.38372V4.5C36.3954 3.94771 35.9476 3.5 35.3954 3.5H12C11.4477 3.5 11 3.94772 11 4.5V8.38372M36.3954 8.38372H11" stroke="#3E3E3E"/>
<circle cx="23.6994" cy="41.593" r="0.976744" fill="#3E3E3E"/>
</svg>
